<?xml version="1.0" standalone="no"?>
<!DOCTYPE svg PUBLIC "-//W3C//DTD SVG 20010904//EN"
 "http://www.w3.org/TR/2001/REC-SVG-20010904/DTD/svg10.dtd">
<svg version="1.0" xmlns="http://www.w3.org/2000/svg"
 width="150.000000pt" height="150.000000pt" viewBox="0 0 150.000000 150.000000"
 preserveAspectRatio="xMidYMid meet">
<metadata>
Created by potrace 1.11, written by Peter Selinger 2001-2013
</metadata>
<g transform="translate(0.000000,150.000000) scale(0.100000,-0.100000)"
fill="#000000" stroke="none">
<path d="M605 1486 c-77 -22 -204 -74 -265 -109 -120 -69 -233 -217 -282 -372
-33 -101 -33 -316 0 -428 74 -256 261 -459 497 -538 60 -21 89 -24 210 -24
139 0 140 0 235 39 152 62 210 96 286 171 112 111 172 240 194 414 11 94 7
149 -21 268 -60 261 -256 481 -499 563 -84 28 -280 37 -355 16z m219 -187
c194 -60 346 -225 406 -441 26 -93 28 -251 4 -335 -34 -121 -124 -247 -215
-302 l-34 -21 -17 208 -16 207 47 42 c86 76 121 208 87 328 -10 32 -25 70 -33
84 -25 40 -95 111 -125 127 -25 13 -32 12 -80 -9 l-53 -24 8 -127 c5 -70 7
-129 5 -132 -3 -2 -26 0 -52 5 -77 14 -83 25 -91 159 -4 64 -10 122 -14 129
-10 19 -121 -33 -168 -79 -145 -142 -111 -396 71 -524 28 -21 29 -22 42 -180
7 -87 11 -160 9 -162 -9 -10 -98 52 -153 107 -191 189 -248 501 -133 729 62
123 165 216 257 232 66 12 173 3 248 -21z"/>
</g>
</svg>
